<svg viewBox="0 0 97 19" xmlns="http://www.w3.org/2000/svg"><g fill-rule="evenodd"><path d="M0 9.54C0 4.266 3.801 0 8.537 0 13.055 0 16.642 3.878 17 8.842v.154a.841.841 0 0 1-.86.852H1.721c.178 4.15 3.193 7.291 6.815 7.291 2.331 0 4.482-1.319 5.665-3.452a.804.804 0 0 1 1.149-.31c.396.31.539.854.287 1.319C14.13 17.293 11.511 19 8.536 19 3.8 19-.001 14.734-.001 9.54m1.828-1.512h13.308c-.574-3.569-3.373-6.167-6.6-6.167-3.3 0-6.06 2.561-6.708 6.167M65.5 0c-4.146 0-7.501 3.497-7.501 7.733v10.336c0 .543.414.931.903.931a.906.906 0 0 0 .905-.931V7.733c0-3.225 2.525-5.868 5.692-5.868 3.166 0 5.69 2.643 5.69 5.868v10.336c0 .543.414.931.905.931.489 0 .903-.388.903-.931V7.733C72.997 3.497 69.644 0 65.498 0M27.534 0c-4.146 0-7.501 3.497-7.501 7.733v10.336c0 .543.414.931.903.931a.906.906 0 0 0 .905-.931V7.733c0-3.225 2.525-5.868 5.692-5.868 3.166 0 5.69 2.643 5.69 5.868v10.336c0 .543.414.931.905.931.489 0 .903-.388.903-.931V7.733C35.031 3.497 31.678 0 27.532 0M76 .931c0-.544.42-.931.918-.931.534 0 .954.388.954.931v17.14c0 .503-.42.929-.954.929a.936.936 0 0 1-.918-.929V.931M81 9.462C81 4.188 85.3 0 90.675 0a9.62 9.62 0 0 1 5.99 2.094c.384.272.46.852.117 1.278-.309.349-.846.467-1.268.156a7.673 7.673 0 0 0-4.838-1.707c-4.376 0-7.832 3.452-7.832 7.64 0 4.263 3.456 7.677 7.832 7.677a7.871 7.871 0 0 0 4.838-1.668c.422-.31.958-.193 1.268.156.344.426.267 1.01-.193 1.358-1.573 1.24-3.687 2.02-5.913 2.02-5.375 0-9.675-4.188-9.675-9.538M39.796 8c.62-3.514 3.43-6.186 6.704-6.186 3.273 0 6.081 2.672 6.701 6.186H55c-.643-4.468-4.172-8-8.5-8-4.295 0-7.853 3.532-8.5 8h1.796M53.2 11c-.594 3.508-3.412 6.162-6.704 6.162-3.294 0-6.114-2.654-6.706-6.162h-1.795c.617 4.458 4.186 7.996 8.501 7.996 4.346 0 7.888-3.538 8.499-7.996H53.2"/></g></svg>
